<svg width="899" height="298" viewBox="0 0 899 298" fill="none" xmlns="http://www.w3.org/2000/svg">
<rect x="62" y="222.667" width="173.95" height="16.3333" rx="8.16667" fill="white"/>
<rect x="62" y="43" width="173.95" height="16.3333" rx="8.16667" fill="white"/>
<g clip-path="url(#clip0)">
<path d="M172.693 74.5676C177.046 76.2418 179.281 81.3061 177.699 85.8933L157.659 144.02L137.619 202.147C136.029 206.735 131.232 209.095 126.888 207.429C122.535 205.755 120.3 200.691 121.882 196.104L161.961 79.8496C163.552 75.2624 168.348 72.9018 172.693 74.5676ZM86.2891 143.141L115.888 174.398C119.153 177.847 119.153 183.439 115.888 186.887C115.134 187.704 114.218 188.355 113.2 188.8C112.181 189.245 111.082 189.475 109.97 189.475C108.859 189.475 107.759 189.245 106.741 188.8C105.722 188.355 104.807 187.704 104.052 186.887L68.5345 149.394C66.959 147.695 66.0835 145.463 66.0835 143.146C66.0835 140.828 66.959 138.596 68.5345 136.897L104.052 99.3955C104.807 98.5794 105.722 97.9282 106.741 97.4829C107.759 97.0375 108.859 96.8076 109.97 96.8076C111.082 96.8076 112.181 97.0375 113.2 97.4829C114.218 97.9282 115.134 98.5794 115.888 99.3955C119.153 102.853 119.153 108.453 115.888 111.902L86.2891 143.141ZM213.291 143.141L183.692 111.902C182.117 110.202 181.241 107.97 181.241 105.653C181.241 103.335 182.117 101.103 183.692 99.4039C184.447 98.5878 185.362 97.9366 186.381 97.4913C187.399 97.0459 188.499 96.816 189.61 96.816C190.722 96.816 191.821 97.0459 192.84 97.4913C193.858 97.9366 194.774 98.5878 195.528 99.4039L231.046 136.897C234.311 140.346 234.311 145.937 231.046 149.394L195.528 186.879C194.774 187.695 193.858 188.346 192.84 188.792C191.821 189.237 190.722 189.467 189.61 189.467C188.499 189.467 187.399 189.237 186.381 188.792C185.362 188.346 184.447 187.695 183.692 186.879C182.119 185.18 181.245 182.95 181.245 180.634C181.245 178.319 182.119 176.089 183.692 174.39L213.291 143.141Z" fill="white"/>
</g>
<path d="M343.78 68.2C352.18 68.2 359.553 69.6467 365.9 72.54C372.247 75.4333 377.66 79.7267 382.14 85.42L371.36 97.88C367.533 93.0267 363.333 89.48 358.76 87.24C354.28 84.9067 349.053 83.74 343.08 83.74C337.107 83.74 332.767 84.86 330.06 87.1C327.353 89.2467 326 91.86 326 94.94C326 97.46 326.933 99.6067 328.8 101.38C330.76 103.06 334.167 104.46 339.02 105.58L356.24 109.5C365.293 111.553 371.827 114.633 375.84 118.74C379.853 122.753 381.86 127.98 381.86 134.42C381.86 140.487 380.273 145.713 377.1 150.1C373.927 154.393 369.493 157.707 363.8 160.04C358.107 162.28 351.573 163.4 344.2 163.4C334.587 163.4 326.14 161.72 318.86 158.36C311.58 155 305.84 150.66 301.64 145.34L312.56 132.32C315.733 136.8 320.073 140.533 325.58 143.52C331.18 146.413 337.387 147.86 344.2 147.86C349.893 147.86 354.28 146.927 357.36 145.06C360.44 143.1 361.98 140.347 361.98 136.8C361.98 134.467 361.14 132.413 359.46 130.64C357.873 128.867 354.887 127.513 350.5 126.58L331.74 122.38C323.527 120.607 317.18 117.713 312.7 113.7C308.22 109.687 305.98 104.227 305.98 97.32C305.98 91.8133 307.473 86.8667 310.46 82.48C313.447 78.0933 317.74 74.64 323.34 72.12C329.033 69.5067 335.847 68.2 343.78 68.2ZM419.458 146.46H468.178V162H400.138V69.6H419.458V146.46ZM513.509 163.4C502.496 163.4 493.676 160.227 487.049 153.88C480.423 147.44 477.109 138.48 477.109 127C477.109 119.347 478.603 112.813 481.589 107.4C484.576 101.987 488.729 97.8333 494.049 94.94C499.463 92.0467 505.623 90.6 512.529 90.6C519.623 90.6 525.643 92.0467 530.589 94.94C535.536 97.74 539.316 101.613 541.929 106.56C544.543 111.413 545.849 116.967 545.849 123.22C545.849 125.087 545.803 126.86 545.709 128.54C545.616 130.22 545.476 131.713 545.289 133.02H495.869C496.616 138.433 498.483 142.493 501.469 145.2C504.549 147.813 508.516 149.12 513.369 149.12C517.476 149.12 520.789 148.327 523.309 146.74C525.829 145.153 527.789 142.96 529.189 140.16L544.449 146.04C542.209 151.547 538.289 155.84 532.689 158.92C527.089 161.907 520.696 163.4 513.509 163.4ZM512.389 104.74C503.336 104.74 497.876 109.733 496.009 119.72H527.509C526.949 114.867 525.363 111.18 522.749 108.66C520.229 106.047 516.776 104.74 512.389 104.74ZM594.583 163.4C583.57 163.4 574.75 160.227 568.123 153.88C561.497 147.44 558.183 138.48 558.183 127C558.183 119.347 559.677 112.813 562.663 107.4C565.65 101.987 569.803 97.8333 575.123 94.94C580.537 92.0467 586.697 90.6 593.603 90.6C600.697 90.6 606.717 92.0467 611.663 94.94C616.61 97.74 620.39 101.613 623.003 106.56C625.617 111.413 626.923 116.967 626.923 123.22C626.923 125.087 626.877 126.86 626.783 128.54C626.69 130.22 626.55 131.713 626.363 133.02H576.943C577.69 138.433 579.557 142.493 582.543 145.2C585.623 147.813 589.59 149.12 594.443 149.12C598.55 149.12 601.863 148.327 604.383 146.74C606.903 145.153 608.863 142.96 610.263 140.16L625.523 146.04C623.283 151.547 619.363 155.84 613.763 158.92C608.163 161.907 601.77 163.4 594.583 163.4ZM593.463 104.74C584.41 104.74 578.95 109.733 577.083 119.72H608.583C608.023 114.867 606.437 111.18 603.823 108.66C601.303 106.047 597.85 104.74 593.463 104.74ZM723.631 69.6C738.097 69.6 749.297 73.6133 757.231 81.64C765.164 89.6667 769.131 101.053 769.131 115.8C769.131 130.547 765.164 141.933 757.231 149.96C749.297 157.987 738.097 162 723.631 162H687.931V69.6H723.631ZM722.651 146.6C731.424 146.6 738.004 143.987 742.391 138.76C746.871 133.44 749.111 125.787 749.111 115.8C749.111 105.813 746.871 98.2067 742.391 92.98C738.004 87.66 731.424 85 722.651 85H707.251V146.6H722.651ZM876.075 92H896.515L874.115 162H851.995L836.735 114.4L822.035 162H799.915L777.515 92H797.955L811.955 145.62L827.495 92H846.535L862.215 145.62L876.075 92Z" fill="white"/>
<path d="M314.55 194C319.717 194 323.733 195.433 326.6 198.3C329.5 201.133 330.95 205.2 330.95 210.5C330.95 215.8 329.5 219.883 326.6 222.75C323.733 225.583 319.717 227 314.55 227H302.9V194H314.55ZM314.55 222.45C318.05 222.45 320.717 221.417 322.55 219.35C324.417 217.25 325.35 214.3 325.35 210.5C325.35 206.7 324.417 203.767 322.55 201.7C320.717 199.6 318.05 198.55 314.55 198.55H308.25V222.45H314.55ZM338.886 227V194H362.786V198.6H344.236V208.1H358.736V212.6H344.236V222.4H363.486V227H338.886ZM381.923 193.5C384.89 193.5 387.457 194.067 389.623 195.2C391.79 196.3 393.623 197.933 395.123 200.1L391.523 203.55C390.257 201.617 388.823 200.233 387.223 199.4C385.657 198.533 383.79 198.1 381.623 198.1C379.19 198.1 377.423 198.567 376.323 199.5C375.223 200.433 374.673 201.567 374.673 202.9C374.673 203.933 375.023 204.833 375.723 205.6C376.457 206.367 377.807 206.967 379.773 207.4L386.473 208.9C389.64 209.633 391.89 210.717 393.223 212.15C394.59 213.55 395.273 215.35 395.273 217.55C395.273 219.583 394.723 221.35 393.623 222.85C392.523 224.317 390.99 225.467 389.023 226.3C387.057 227.1 384.773 227.5 382.173 227.5C378.673 227.5 375.69 226.85 373.223 225.55C370.757 224.217 368.857 222.567 367.523 220.6L371.223 216.9C372.257 218.667 373.707 220.117 375.573 221.25C377.473 222.35 379.723 222.9 382.323 222.9C384.623 222.9 386.423 222.5 387.723 221.7C389.057 220.867 389.723 219.683 389.723 218.15C389.723 217.217 389.39 216.383 388.723 215.65C388.09 214.883 386.89 214.3 385.123 213.9L377.873 212.25C374.873 211.617 372.657 210.567 371.223 209.1C369.79 207.633 369.073 205.8 369.073 203.6C369.073 201.733 369.59 200.033 370.623 198.5C371.657 196.967 373.123 195.75 375.023 194.85C376.957 193.95 379.257 193.5 381.923 193.5ZM398.512 227L410.962 194H417.362L429.812 227H424.162L421.062 218.35H407.162L404.012 227H398.512ZM412.612 203.3L408.712 214H419.462L415.662 203.4L414.162 198.65H414.012L412.612 203.3ZM449.114 194C452.647 194 455.447 194.883 457.514 196.65C459.614 198.417 460.664 200.8 460.664 203.8C460.664 206.2 460.014 208.183 458.714 209.75C457.447 211.283 455.697 212.35 453.464 212.95L462.614 227H456.464L448.064 213.8H440.964V227H435.664V194H449.114ZM448.714 209.35C452.98 209.35 455.114 207.55 455.114 203.95C455.114 200.35 452.98 198.55 448.714 198.55H440.964V209.35H448.714ZM482.707 194C486.241 194 489.041 194.883 491.107 196.65C493.207 198.417 494.257 200.8 494.257 203.8C494.257 206.2 493.607 208.183 492.307 209.75C491.041 211.283 489.291 212.35 487.057 212.95L496.207 227H490.057L481.657 213.8H474.557V227H469.257V194H482.707ZM482.307 209.35C486.574 209.35 488.707 207.55 488.707 203.95C488.707 200.35 486.574 198.55 482.307 198.55H474.557V209.35H482.307ZM516.258 193.5C519.458 193.5 522.225 194.183 524.558 195.55C526.892 196.917 528.692 198.883 529.958 201.45C531.225 203.983 531.858 207 531.858 210.5C531.858 214 531.225 217.033 529.958 219.6C528.692 222.133 526.892 224.083 524.558 225.45C522.225 226.817 519.458 227.5 516.258 227.5C513.058 227.5 510.292 226.817 507.958 225.45C505.658 224.083 503.875 222.133 502.608 219.6C501.342 217.033 500.708 214 500.708 210.5C500.708 207 501.342 203.983 502.608 201.45C503.875 198.883 505.658 196.917 507.958 195.55C510.292 194.183 513.058 193.5 516.258 193.5ZM516.258 198.15C513.158 198.15 510.725 199.233 508.958 201.4C507.192 203.533 506.308 206.567 506.308 210.5C506.308 214.433 507.192 217.483 508.958 219.65C510.725 221.783 513.158 222.85 516.258 222.85C519.392 222.85 521.842 221.783 523.608 219.65C525.375 217.483 526.258 214.433 526.258 210.5C526.258 206.567 525.375 203.533 523.608 201.4C521.842 199.233 519.392 198.15 516.258 198.15ZM545.164 222.4H563.364V227H539.814V194H545.164V222.4ZM575.096 222.4H593.296V227H569.746V194H575.096V222.4ZM612.254 193.5C615.454 193.5 618.221 194.183 620.554 195.55C622.888 196.917 624.688 198.883 625.954 201.45C627.221 203.983 627.854 207 627.854 210.5C627.854 214 627.221 217.033 625.954 219.6C624.688 222.133 622.888 224.083 620.554 225.45C618.221 226.817 615.454 227.5 612.254 227.5C609.054 227.5 606.288 226.817 603.954 225.45C601.654 224.083 599.871 222.133 598.604 219.6C597.338 217.033 596.704 214 596.704 210.5C596.704 207 597.338 203.983 598.604 201.45C599.871 198.883 601.654 196.917 603.954 195.55C606.288 194.183 609.054 193.5 612.254 193.5ZM612.254 198.15C609.154 198.15 606.721 199.233 604.954 201.4C603.188 203.533 602.304 206.567 602.304 210.5C602.304 214.433 603.188 217.483 604.954 219.65C606.721 221.783 609.154 222.85 612.254 222.85C615.388 222.85 617.838 221.783 619.604 219.65C621.371 217.483 622.254 214.433 622.254 210.5C622.254 206.567 621.371 203.533 619.604 201.4C617.838 199.233 615.388 198.15 612.254 198.15ZM657.147 227L647.447 194H653.097L660.497 222.35L667.697 194H673.197L680.447 222.4L687.797 194H693.247L683.597 227H677.297L672.047 207.2L670.397 199.6H670.347L668.697 207.2L663.497 227H657.147ZM699.531 227V194H723.431V198.6H704.881V208.1H719.381V212.6H704.881V222.4H724.131V227H699.531ZM731.318 227V194H744.318C748.285 194 751.185 194.8 753.018 196.4C754.851 198 755.768 200.217 755.768 203.05C755.768 204.783 755.268 206.333 754.268 207.7C753.268 209.033 751.801 209.883 749.868 210.25V210.3C752.001 210.667 753.651 211.55 754.818 212.95C756.018 214.35 756.618 215.983 756.618 217.85C756.618 220.683 755.585 222.917 753.518 224.55C751.451 226.183 748.451 227 744.518 227H731.318ZM736.568 208.2H743.918C748.118 208.2 750.218 206.583 750.218 203.35C750.218 200.117 748.118 198.5 743.918 198.5H736.568V208.2ZM736.568 222.55H744.768C746.868 222.55 748.435 222.117 749.468 221.25C750.535 220.383 751.068 219.167 751.068 217.6C751.068 216.033 750.535 214.817 749.468 213.95C748.435 213.083 746.868 212.65 744.768 212.65H736.568V222.55Z" fill="white"/>
<defs>
<clipPath id="clip0">
<rect width="167.417" height="133.933" fill="white" transform="translate(66.0833 74.0333)"/>
</clipPath>
</defs>
</svg>
